# xmcd
#
# Track frame offsets: 
#        150
#        10242
#        21400
#        30955
#        41595
#        55287
#        68777
#        84607
#        93632
#        106760
#        119157
#        129842
#        144155
#        153052
#        160960
#        173285
#        184132
#        193465
#        205505
#        215752
#        225030
#        235372
#        247430
#        257305
#        269130
#        280652
#        292705
#
# Disc length: 4053 seconds
#
# Revision: 1
# Processed by: cddbd v1.5.2PL0 Copyright (c) Steve Scherf et al.
# Submitted via: ExactAudioCopyFreeDBPlugin 1.0
#
DISCID=750fd31b
DTITLE=Buddy Johnson - Buddy and Ella Johnson:  1953-1964 [Bear Family b
DTITLE=ox set]
DYEAR=1992
DGENRE=Rhythm and Blues
TTITLE0=Don't Fail Me Baby
TTITLE1=Small Taste
TTITLE2=Baby Hear My Humble Plea
TTITLE3=Tuke Number One
TTITLE4=Going to New York
TTITLE5=Have Mercy on a Fool
TTITLE6=Buddy's Song
TTITLE7=Real Fine Frame
TTITLE8=Walk'em
TTITLE9=I'm Tired of Cryin' Over You
TTITLE10=You Better Change Your Ways
TTITLE11=Down Yonder
TTITLE12=Go Ahead and Rock
TTITLE13=Get Down on the Road
TTITLE14=Sliding Horns
TTITLE15=Come Here, Lovely Dovey
TTITLE16=Keeping My Love for You
TTITLE17=Buddy's Rock
TTITLE18=A Woman, a Lover, a Friend
TTITLE19=I'll Be Glad
TTITLE20=(Ha! Ha! Baby) The Last Laugh's on You
TTITLE21=Ever So Grateful
TTITLE22=Good-Time Man
TTITLE23=Don't Be Messin'
TTITLE24=Like You Do
TTITLE25=I Gotta Talk to Somebody
TTITLE26=Keep on Loving You
EXTD=
EXTT0=
EXTT1=
EXTT2=
EXTT3=
EXTT4=
EXTT5=
EXTT6=
EXTT7=
EXTT8=
EXTT9=
EXTT10=
EXTT11=
EXTT12=
EXTT13=
EXTT14=
EXTT15=
EXTT16=
EXTT17=
EXTT18=
EXTT19=
EXTT20=
EXTT21=
EXTT22=
EXTT23=
EXTT24=
EXTT25=
EXTT26=
PLAYORDER=
